# xmcd CD database file
#
# Track frame offsets:
#	150
#	18360
#	38939
#	61561
#	84188
#	103748
#	125175
#	145007
#	160146
#	178563
#	211915
#	231647
#	247924
#	266539
#	284921
#	312705
#	332807
#
# Disc length: 4682 seconds
#
# Revision: 3
# Processed by: cddbd v1.5.1PL2 Copyright (c) Steve Scherf et al.
# Submitted via: CDex 1.51
#
DISCID=f8124811
DTITLE=Kenny G - Greatest Hits (New Edition)
DYEAR=1900
DGENRE=Jazz
TTITLE0=Songbird
TTITLE1=Silhouette
TTITLE2=Forever In Love
TTITLE3=Everytime I Close My Eyes (with Babyface and Mariah Carey)
TTITLE4=Sentimental
TTITLE5=The Moment
TTITLE6=How Can an Angel Break My Heart? (with Tony Braxton)
TTITLE7=Loving You
TTITLE8=You Send Me (with Michael Bolton)
TTITLE9=Havana
TTITLE10=By The Time This Night Is Over (with Peabo Bryson)
TTITLE11=Baby G
TTITLE12=Don't Make Me Wait For Love (with Lenny Williams)
TTITLE13=Theme From "Dying Young"
TTITLE14=All The Way /And More For The Rord
TTITLE15=My Heart Will Go On (Love Theme From 'Titanic')
TTITLE16=Asian Dream
EXTD=
EXTT0=
EXTT1=
EXTT2=
EXTT3=
EXTT4=
EXTT5=
EXTT6=
EXTT7=
EXTT8=
EXTT9=
EXTT10=
EXTT11=
EXTT12=
EXTT13=
EXTT14=
EXTT15=
EXTT16=
PLAYORDER=
